<svg version="1" xmlns="http://www.w3.org/2000/svg" width="346.667" height="346.667" viewBox="0 0 260.000000 260.000000"><path d="M168 6.3c0 .5-.4.6-.9.3-1.4-.9-14 3.7-19.1 6.9-9.2 5.8-16.1 14.4-25.2 31.5-2.5 4.7-6.3 11.6-8.3 15.5-2.1 3.8-5 9.2-6.5 12-1.5 2.7-5.8 10.6-9.5 17.5s-8.3 15.2-10.1 18.5C76.9 129.8 49 181.3 49 181.4c0 .2 4.7-.7 10.5-1.9s10.5-1.9 10.5-1.7c0 .3-4.3 8.8-9.6 19.1-5.3 10.2-13.9 26.9-19.2 37.1-5.3 10.2-10 18.9-10.6 19.3-1 .8 5.6.2 10.7-.9 1.2-.3 5.5-1.1 9.5-1.8s7.4-1.5 7.7-1.7c.2-.3 3.2-8.3 6.5-17.9 10.6-30.4 13.1-37.4 14-39.8.8-1.7 1.8-2.2 4.7-2.3 14.5-.2 29.9-1.9 41.3-4.4 1.4-.3 3.6-.8 5-1.1 12.5-2.5 30.6-9.9 41.7-17 4.9-3.1 7.4-5.2 15.7-12.9 5.9-5.5 12.1-16.1 15.6-26.6 3-8.7 3.5-13.2 3.4-28.4 0-11.6-.3-13.5-2.4-17.5-5-9.8-10.8-14.9-20.4-18-5.6-1.9-17.7-2.4-22.7-1-4.3 1.3-4.7.5-6.3-13.4-.4-3 1.2-10.7 3-14.4 2.5-5.4 9.8-11.7 15.5-13.5 5.6-1.9 14.6-2.2 19.5-.8l3.1.9.1-5.4c0-6.1-.4-6.6-8.4-8.5-5.7-1.4-19.4-1.8-19.4-.6zm11.5 89.4c-1.4 14.8-7 30.2-14.2 39.4-7 9-18.2 17.4-31.6 23.8-10.1 4.8-9.3 3.1 1-2 14.8-7.4 25.5-17.1 33-30 2.7-4.8 6.2-14.2 6.9-18.7.3-2.1.7-4.4.9-5.2.3-.8.5-3.8.6-6.7.2-4.6.4-5.1 1.9-4.3 1.2.6 1.7 1.9 1.5 3.7z"/><path d="M196 34c-2.4 2.4-2.4 2.9-.4 5.8 3.2 4.6 10.5 1.1 8.5-4-.9-2.3-2.9-3.8-5.2-3.8-.5 0-1.8.9-2.9 2zM210.8 47.7c-2.1 2.7-4.9 6.1-6.3 7.8l-2.7 3 14.3.3c7.8.1 14.4.1 14.6-.1.4-.4-14.3-15-15.6-15.5-.3-.1-2.3 1.9-4.3 4.5z"/></svg>